<svg xmlns="http://www.w3.org/2000/svg" style="display: none;">
  <symbol id="profil" viewBox="0 0 24 24">
    <circle cx="12" cy="9" r="3" stroke="#1C274C" stroke-width="1.5"/>
    <path d="M17.9691 20C17.81 17.1085 16.9247 15 11.9999 15C7.07521 15 6.18991 17.1085 6.03076 20" stroke="#1C274C" stroke-width="1.5" stroke-linecap="round"/>
    <path d="M7 3.33782C8.47087 2.48697 10.1786 2 12 2C17.5228 2 22 6.47715 22 12C22 17.5228 17.5228 22 12 22C6.47715 22 2 17.5228 2 12C2 10.1786 2.48697 8.47087 3.33782 7" stroke="#1C274C" stroke-width="1.5" stroke-linecap="round"/>
  </symbol>

  <symbol id="example" viewBox="0 0 24 24">
    <path d="M12 0L24 24H0z" />
  </symbol>

  <symbol id="eye-open" viewBox="0 0 24 24">
    <path d="M15.0007 12C15.0007 13.6569 13.6576 15 12.0007 15C10.3439 15 9.00073 13.6569 9.00073 12C9.00073 10.3431 10.3439 9 12.0007 9C13.6576 9 15.0007 10.3431 15.0007 12Z" stroke="#000000" stroke-width="2" stroke-linecap="round" stroke-linejoin="round"/>
    <path d="M12.0012 5C7.52354 5 3.73326 7.94288 2.45898 12C3.73324 16.0571 7.52354 19 12.0012 19C16.4788 19 20.2691 16.0571 21.5434 12C20.2691 7.94291 16.4788 5 12.0012 5Z" stroke="#000000" stroke-width="2" stroke-linecap="round" stroke-linejoin="round"/>
  </symbol>

  <symbol id="eye-slash" viewBox="0 0 24 24">
    <path d="M2.99902 3L20.999 21M9.8433 9.91364C9.32066 10.4536 8.99902 11.1892 8.99902 12C8.99902 13.6569 10.3422 15 11.999 15C12.8215 15 13.5667 14.669 14.1086 14.133M6.49902 6.64715C4.59972 7.90034 3.15305 9.78394 2.45703 12C3.73128 16.0571 7.52159 19 11.9992 19C13.9881 19 15.8414 18.4194 17.3988 17.4184M10.999 5.04939C11.328 5.01673 11.6617 5 11.9992 5C16.4769 5 20.2672 7.94291 21.5414 12C21.2607 12.894 20.8577 13.7338 20.3522 14.5" stroke="#000000" stroke-width="2" stroke-linecap="round" stroke-linejoin="round"/>
  </symbol>

  <symbol id="user" viewBox="0 0 16 16">
    <path d="M8 7C9.65685 7 11 5.65685 11 4C11 2.34315 9.65685 1 8 1C6.34315 1 5 2.34315 5 4C5 5.65685 6.34315 7 8 7Z" fill="#000000"/>
    <path d="M14 12C14 10.3431 12.6569 9 11 9H5C3.34315 9 2 10.3431 2 12V15H14V12Z" fill="#000000"/>
  </symbol>
</svg>